G04 Layer_Color=32896*
%FSLAX25Y25*%
%MOIN*%
G70*
G01*
G75*
%ADD25C,0.00787*%
%ADD36C,0.02362*%
%ADD37C,0.00984*%
%ADD39C,0.00394*%
%ADD40C,0.00591*%
D25*
X141583Y2244D02*
G03*
X141583Y2244I-787J0D01*
G01*
X99016Y13189D02*
Y14370D01*
X95866Y13189D02*
Y14370D01*
X99016Y38780D02*
Y39961D01*
X95866Y38780D02*
Y39961D01*
X99016Y62402D02*
Y63583D01*
X95866Y62402D02*
Y63583D01*
X87992Y68307D02*
Y69488D01*
X91142Y68307D02*
Y69488D01*
X29134Y66339D02*
Y67520D01*
X25984Y66339D02*
Y67520D01*
X54232Y30512D02*
X55413D01*
X54232Y33661D02*
X55413D01*
X59449Y95866D02*
X60630D01*
X59449Y99016D02*
X60630D01*
X113583Y98032D02*
X114764D01*
X113583Y94882D02*
X114764D01*
X95866Y76181D02*
Y77362D01*
X99016Y76181D02*
Y77362D01*
X40945Y84055D02*
X77165D01*
X40945Y47835D02*
X77165D01*
X40945D02*
Y84055D01*
X77165Y47835D02*
Y84055D01*
X121653Y1378D02*
Y22244D01*
X108661Y1378D02*
Y22244D01*
X121653D01*
X108661Y1378D02*
X121653D01*
Y25000D02*
Y45866D01*
X108661Y25000D02*
Y45866D01*
X121653D01*
X108661Y25000D02*
X121653D01*
X108661Y72244D02*
Y93110D01*
X121653Y72244D02*
Y93110D01*
X108661Y72244D02*
X121653D01*
X108661Y93110D02*
X121653D01*
Y48622D02*
Y69488D01*
X108661Y48622D02*
Y69488D01*
X121653D01*
X108661Y48622D02*
X121653D01*
D36*
X46063Y80118D02*
G03*
X46063Y80118I-1181J0D01*
G01*
X118898Y18307D02*
G03*
X118898Y18307I-1181J0D01*
G01*
Y41929D02*
G03*
X118898Y41929I-1181J0D01*
G01*
X113779Y76181D02*
G03*
X113779Y76181I-1181J0D01*
G01*
X118898Y65551D02*
G03*
X118898Y65551I-1181J0D01*
G01*
D37*
X40551Y89075D02*
G03*
X40551Y89075I-492J0D01*
G01*
X126476Y22658D02*
G03*
X126476Y22658I-492J0D01*
G01*
Y46279D02*
G03*
X126476Y46279I-492J0D01*
G01*
X104823Y71831D02*
G03*
X104823Y71831I-492J0D01*
G01*
X126476Y69902D02*
G03*
X126476Y69902I-492J0D01*
G01*
D39*
X142795Y4244D02*
Y7244D01*
Y10244D01*
X140795Y12244D02*
X142795Y10244D01*
X132795Y7244D02*
Y10244D01*
X134795Y12244D01*
X132795Y4244D02*
Y7244D01*
Y4244D02*
X134795Y2244D01*
X140795D02*
X142795Y4244D01*
X140795Y12244D02*
X142795Y14244D01*
X132795D02*
X134795Y12244D01*
X132795Y14244D02*
Y17244D01*
Y20244D02*
X134795Y22244D01*
X132795Y17244D02*
Y20244D01*
X140795Y22244D02*
X142795Y20244D01*
Y17244D02*
Y20244D01*
Y14244D02*
Y17244D01*
X140795Y22244D02*
X142795Y24244D01*
X132795D02*
X134795Y22244D01*
X132795Y24244D02*
Y27244D01*
Y30244D02*
X134795Y32244D01*
X132795Y27244D02*
Y30244D01*
X140795Y32244D02*
X142795Y30244D01*
Y27244D02*
Y30244D01*
Y24244D02*
Y27244D01*
X140795Y32244D02*
X142795Y34244D01*
X132795D02*
X134795Y32244D01*
X132795Y34244D02*
Y37244D01*
Y40244D02*
X134795Y42244D01*
X132795Y37244D02*
Y40244D01*
X140795Y42244D02*
X142795Y40244D01*
Y37244D02*
Y40244D01*
Y34244D02*
Y37244D01*
X140795Y42244D02*
X142795Y44244D01*
X132795D02*
X134795Y42244D01*
X132795Y44244D02*
Y47244D01*
Y50244D02*
X134795Y52244D01*
X132795Y47244D02*
Y50244D01*
X140795Y52244D02*
X142795Y50244D01*
Y47244D02*
Y50244D01*
Y44244D02*
Y47244D01*
X140795Y52244D02*
X142795Y54244D01*
X132795D02*
X134795Y52244D01*
X132795Y54244D02*
Y57244D01*
Y60244D02*
X134795Y62244D01*
X132795Y57244D02*
Y60244D01*
X140795Y62244D02*
X142795Y60244D01*
Y57244D02*
Y60244D01*
Y54244D02*
Y57244D01*
X140795Y62244D02*
X142795Y64244D01*
X132795D02*
X134795Y62244D01*
X132795Y64244D02*
Y67244D01*
Y70244D02*
X134795Y72244D01*
X132795Y67244D02*
Y70244D01*
X140795Y72244D02*
X142795Y70244D01*
Y67244D02*
Y70244D01*
Y64244D02*
Y67244D01*
X140795Y72244D02*
X142795Y74244D01*
X132795D02*
X134795Y72244D01*
X132795Y74244D02*
Y77244D01*
Y80244D02*
X134795Y82244D01*
X132795Y77244D02*
Y80244D01*
X140795Y82244D02*
X142795Y80244D01*
Y77244D02*
Y80244D01*
Y74244D02*
Y77244D01*
X134795Y2244D02*
X140795D01*
X134795Y82244D02*
X140795D01*
D40*
X90551Y11811D02*
X94487D01*
Y13779D01*
X93831Y14435D01*
X92519D01*
X91863Y13779D01*
Y11811D01*
Y13123D02*
X90551Y14435D01*
Y15747D02*
Y17059D01*
Y16403D01*
X94487D01*
X93831Y15747D01*
X90551Y37402D02*
X94487D01*
Y39369D01*
X93831Y40025D01*
X92519D01*
X91863Y39369D01*
Y37402D01*
Y38713D02*
X90551Y40025D01*
Y43961D02*
Y41337D01*
X93175Y43961D01*
X93831D01*
X94487Y43305D01*
Y41993D01*
X93831Y41337D01*
X94488Y47244D02*
X98424D01*
Y49212D01*
X97768Y49868D01*
X96456D01*
X95800Y49212D01*
Y47244D01*
Y48556D02*
X94488Y49868D01*
X97768Y51180D02*
X98424Y51836D01*
Y53148D01*
X97768Y53804D01*
X97112D01*
X96456Y53148D01*
Y52492D01*
Y53148D01*
X95800Y53804D01*
X95144D01*
X94488Y53148D01*
Y51836D01*
X95144Y51180D01*
X89894Y55773D02*
X90550Y55117D01*
Y53806D01*
X89894Y53150D01*
X87270D01*
X86614Y53806D01*
Y55117D01*
X87270Y55773D01*
X86614Y59709D02*
Y57085D01*
X89238Y59709D01*
X89894D01*
X90550Y59053D01*
Y57741D01*
X89894Y57085D01*
X22965Y67585D02*
X23621Y66928D01*
Y65617D01*
X22965Y64961D01*
X20341D01*
X19685Y65617D01*
Y66928D01*
X20341Y67585D01*
X19685Y70864D02*
X23621D01*
X21653Y68896D01*
Y71520D01*
X44620Y32807D02*
X45276Y33463D01*
X46588D01*
X47244Y32807D01*
Y30184D01*
X46588Y29528D01*
X45276D01*
X44620Y30184D01*
X43308Y32807D02*
X42652Y33463D01*
X41341D01*
X40685Y32807D01*
Y32151D01*
X41341Y31495D01*
X41996D01*
X41341D01*
X40685Y30839D01*
Y30184D01*
X41341Y29528D01*
X42652D01*
X43308Y30184D01*
X60368Y103674D02*
X61024Y104329D01*
X62336D01*
X62992Y103674D01*
Y101050D01*
X62336Y100394D01*
X61024D01*
X60368Y101050D01*
X59056Y100394D02*
X57744D01*
X58400D01*
Y104329D01*
X59056Y103674D01*
X139762Y84646D02*
X135827Y87270D01*
X139762D02*
X135827Y84646D01*
X139107Y91205D02*
X139762Y90549D01*
Y89237D01*
X139107Y88581D01*
X138451D01*
X137795Y89237D01*
Y90549D01*
X137139Y91205D01*
X136483D01*
X135827Y90549D01*
Y89237D01*
X136483Y88581D01*
X135827Y92517D02*
Y93829D01*
Y93173D01*
X139762D01*
X139107Y92517D01*
X118110Y100394D02*
Y104329D01*
X116142D01*
X115486Y103674D01*
Y102362D01*
X116142Y101706D01*
X118110D01*
X116798D02*
X115486Y100394D01*
X111551Y104329D02*
X114174D01*
Y102362D01*
X112863Y103017D01*
X112207D01*
X111551Y102362D01*
Y101050D01*
X112207Y100394D01*
X113519D01*
X114174Y101050D01*
X96457Y84646D02*
X100392D01*
Y86614D01*
X99736Y87270D01*
X98425D01*
X97769Y86614D01*
Y84646D01*
Y85958D02*
X96457Y87270D01*
Y90549D02*
X100392D01*
X98425Y88581D01*
Y91205D01*
X82677Y96455D02*
Y92520D01*
X80709D01*
X80053Y93176D01*
Y95799D01*
X80709Y96455D01*
X82677D01*
X78741D02*
Y92520D01*
X76774D01*
X76118Y93176D01*
Y95799D01*
X76774Y96455D01*
X78741D01*
X72182Y92520D02*
X74806D01*
X72182Y95144D01*
Y95799D01*
X72838Y96455D01*
X74150D01*
X74806Y95799D01*
X120078Y3937D02*
X116142D01*
Y5905D01*
X116798Y6561D01*
X119422D01*
X120078Y5905D01*
Y3937D01*
Y7873D02*
X116142D01*
Y9841D01*
X116798Y10497D01*
X119422D01*
X120078Y9841D01*
Y7873D01*
X116142Y11808D02*
Y13120D01*
Y12464D01*
X120078D01*
X119422Y11808D01*
X120078Y27559D02*
X116142D01*
Y29527D01*
X116798Y30183D01*
X119422D01*
X120078Y29527D01*
Y27559D01*
Y31495D02*
X116142D01*
Y33463D01*
X116798Y34119D01*
X119422D01*
X120078Y33463D01*
Y31495D01*
X119422Y35430D02*
X120078Y36086D01*
Y37398D01*
X119422Y38054D01*
X118766D01*
X118110Y37398D01*
Y36742D01*
Y37398D01*
X117454Y38054D01*
X116798D01*
X116142Y37398D01*
Y36086D01*
X116798Y35430D01*
X120078Y74803D02*
X116142D01*
Y76771D01*
X116798Y77427D01*
X119422D01*
X120078Y76771D01*
Y74803D01*
Y78739D02*
X116142D01*
Y80707D01*
X116798Y81363D01*
X119422D01*
X120078Y80707D01*
Y78739D01*
Y85299D02*
Y82675D01*
X118110D01*
X118766Y83987D01*
Y84642D01*
X118110Y85299D01*
X116798D01*
X116142Y84642D01*
Y83331D01*
X116798Y82675D01*
X120078Y51181D02*
X116142D01*
Y53149D01*
X116798Y53805D01*
X119422D01*
X120078Y53149D01*
Y51181D01*
Y55117D02*
X116142D01*
Y57085D01*
X116798Y57741D01*
X119422D01*
X120078Y57085D01*
Y55117D01*
X116142Y61020D02*
X120078D01*
X118110Y59053D01*
Y61676D01*
M02*
