M48
;Layer_Color=9474304
;FILE_FORMAT=2:5
INCH,LZ
;TYPE=PLATED
T1F00S00C0.01181
T2F00S00C0.03543
%
T01
X011921Y0048228
X0125984Y0093884
X0107972Y0102461
X0084547Y0092716
X0092716Y0081004
X0091142Y0077461
X009252Y0059646
X0104331Y0046891
X008937Y0029724
X008061Y0037894
X0075984Y0035531
X0062303Y0051181
X007687Y0072244
X0072146Y0077067
X0046555Y0099213
X0034564Y0040157
X0113681Y0011319
T02
X0137795Y0007244
Y0017244
Y0027244
Y0037244
Y0047244
Y0057244
Y0067244
Y0077244
X0037559Y0098425
X0027559
X0017559
X0007559
M30
