G04 Layer_Color=8421504*
%FSLAX25Y25*%
%MOIN*%
G70*
G01*
G75*
%ADD13R,0.00886X0.03937*%
%ADD14R,0.07874X0.05118*%
%ADD15R,0.05315X0.06102*%
%ADD16R,0.15354X0.29134*%
%ADD17R,0.03740X0.03937*%
%ADD18O,0.03543X0.11220*%
%ADD19R,0.03937X0.03740*%
%ADD20R,0.06102X0.05315*%
%ADD21R,0.03543X0.08268*%
%ADD22R,0.12598X0.08268*%
%ADD23R,0.07283X0.04331*%
%ADD24R,0.08661X0.03347*%
D13*
X23819Y22441D02*
D03*
X21260D02*
D03*
X18701D02*
D03*
X16142D02*
D03*
X13583D02*
D03*
D14*
X4921Y11220D02*
D03*
X32480D02*
D03*
D15*
X7874Y83661D02*
D03*
X15748D02*
D03*
X95472Y5906D02*
D03*
X87598D02*
D03*
D16*
X35236Y62992D02*
D03*
X12008D02*
D03*
D17*
X35433Y82677D02*
D03*
X27559D02*
D03*
X107283Y5906D02*
D03*
X115157D02*
D03*
X78740D02*
D03*
X70866D02*
D03*
D18*
X86850Y83268D02*
D03*
X76850D02*
D03*
X66850D02*
D03*
X56850D02*
D03*
X86850Y44685D02*
D03*
X76850D02*
D03*
X66850D02*
D03*
X56850D02*
D03*
D19*
X102362Y60039D02*
D03*
Y52165D02*
D03*
D20*
X112205Y48228D02*
D03*
Y56102D02*
D03*
D21*
X109055Y15354D02*
D03*
X118110D02*
D03*
X127165D02*
D03*
D22*
X118110Y37795D02*
D03*
D23*
X97441Y30512D02*
D03*
Y22638D02*
D03*
D24*
X82677Y27559D02*
D03*
X66929D02*
D03*
X58071Y12795D02*
D03*
X42323D02*
D03*
M02*
