G04 Layer_Physical_Order=1*
G04 Layer_Color=255*
%FSLAX25Y25*%
%MOIN*%
G70*
G01*
G75*
%ADD10C,0.01378*%
%ADD11C,0.01378*%
%ADD12C,0.00800*%
%ADD13R,0.00886X0.03937*%
%ADD14R,0.07874X0.05118*%
%ADD15R,0.05315X0.06102*%
%ADD16R,0.15354X0.29134*%
%ADD17R,0.03740X0.03937*%
%ADD18O,0.03543X0.11220*%
%ADD19R,0.03937X0.03740*%
%ADD20R,0.06102X0.05315*%
%ADD21R,0.03543X0.08268*%
%ADD22R,0.12598X0.08268*%
%ADD23R,0.07283X0.04331*%
%ADD24R,0.08661X0.03347*%
%ADD25C,0.00787*%
%ADD26C,0.00797*%
%ADD27R,0.07087X0.07087*%
%ADD28C,0.07087*%
%ADD29R,0.07087X0.07087*%
%ADD30C,0.02756*%
D10*
X129399Y94797D02*
G03*
X129262Y94941I-2866J-2585D01*
G01*
X127464Y85141D02*
G03*
X130393Y92212I-7071J7071D01*
G01*
X126613Y97591D02*
G03*
X122697Y99213I-3915J-3915D01*
G01*
X102362Y80110D02*
G03*
X99433Y87181I-10000J0D01*
G01*
X99318Y60039D02*
G03*
X98130Y59547I0J-1680D01*
G01*
D02*
G03*
X96949Y56696I2851J-2851D01*
G01*
Y55914D02*
G03*
X99878Y48843I10000J0D01*
G01*
X91581Y92864D02*
G03*
X89983Y93012I-1598J-8590D01*
G01*
X96161Y90453D02*
G03*
X91581Y92864I-6178J-6178D01*
G01*
Y83745D02*
G03*
X92716Y81004I3876J0D01*
G01*
X86662Y93012D02*
G03*
X84228Y92004I0J-3442D01*
G01*
X104331Y46891D02*
G03*
X104429Y46654I336J0D01*
G01*
X111407Y13593D02*
G03*
X109055Y14567I-2352J-2352D01*
G01*
X100397Y48324D02*
G03*
X104429Y46654I4033J4033D01*
G01*
X86850Y48378D02*
G03*
X83921Y55449I-10000J0D01*
G01*
X85735Y33756D02*
G03*
X86850Y37885I-7084J4129D01*
G01*
X89370Y29724D02*
G03*
X89090Y30401I-957J0D01*
G01*
X84449Y32087D02*
G03*
X85735Y33756I-5798J5798D01*
G01*
X84228Y92004D02*
G03*
X81299Y84933I7071J-7071D01*
G01*
Y61272D02*
G03*
X83563Y55807I7729J0D01*
G01*
X72638Y32185D02*
G03*
X72875Y32087I238J238D01*
G01*
X72416Y32185D02*
G03*
X67415Y30114I0J-7072D01*
G01*
X70866Y10425D02*
G03*
X67937Y17496I-10000J0D01*
G01*
X67415Y30114D02*
G03*
X66929Y27670I5899J-2443D01*
G01*
Y19930D02*
G03*
X67937Y17496I3442J0D01*
G01*
X122125Y96260D02*
G03*
X119060Y96752I-3065J-9301D01*
G01*
X53650D02*
G03*
X46579Y93823I0J-10000D01*
G01*
X54724Y35433D02*
G03*
X56850Y40566I-5133J5133D01*
G01*
X50210Y33563D02*
G03*
X54724Y35433I0J6385D01*
G01*
X42323Y32850D02*
G03*
X42028Y33563I-1008J0D01*
G01*
X31323Y36492D02*
G03*
X38394Y33563I7071J7071D01*
G01*
X27846Y79232D02*
G03*
X34917Y82161I0J10000D01*
G01*
X27846Y79232D02*
G03*
X24836Y77985I0J-4257D01*
G01*
D02*
G03*
X23425Y74580I3405J-3405D01*
G01*
Y48532D02*
G03*
X26354Y41461I10000J0D01*
G01*
X37738Y104429D02*
G03*
X37500Y104331I0J-336D01*
G01*
X107972Y102461D02*
G03*
X103220Y104429I-4752J-4752D01*
G01*
X8024Y104331D02*
G03*
X3257Y102356I0J-6741D01*
G01*
X1799Y86898D02*
G03*
X2854Y84350I3603J0D01*
G01*
X7874Y71268D02*
G03*
X10803Y64197I10000J0D01*
G01*
X7874Y83661D02*
G03*
X6211Y84350I-1663J-1663D01*
G01*
X59425Y60063D02*
G03*
X52354Y62992I-7071J-7071D01*
G01*
X66850Y48496D02*
G03*
X63921Y55567I-10000J0D01*
G01*
X60039Y31496D02*
G03*
X58071Y26744I4752J-4752D01*
G01*
X63921Y35378D02*
G03*
X66850Y42449I-7071J7071D01*
G01*
X86850Y62764D02*
G03*
X89779Y55693I10000J0D01*
G01*
X97441Y43889D02*
G03*
X94512Y50960I-10000J0D01*
G01*
X112205Y47843D02*
G03*
X115134Y40772I10000J0D01*
G01*
X115181Y5929D02*
G03*
X118110Y13000I-7071J7071D01*
G01*
X83661Y39814D02*
G03*
X83071Y41240I-2016J0D01*
G01*
X81890Y34547D02*
G03*
X83661Y38824I-4277J4277D01*
G01*
X76870Y62016D02*
G03*
X79799Y54945I10000J0D01*
G01*
X83071Y47531D02*
G03*
X80142Y54602I-10000J0D01*
G01*
X76083Y35433D02*
G03*
X78221Y34547I2139J2139D01*
G01*
X80610Y47591D02*
G03*
X79134Y51156I-5041J0D01*
G01*
X72146Y62286D02*
G03*
X75075Y55215I10000J0D01*
G01*
X92520Y74134D02*
G03*
X91142Y77461I-4705J0D01*
G01*
X62303Y51181D02*
G03*
X59214Y52461I-3089J-3089D01*
G01*
X57095D02*
G03*
X50024Y49532I0J-10000D01*
G01*
X36704Y40354D02*
G03*
X43775Y43283I0J10000D01*
G01*
X34564Y40157D02*
G03*
X35039Y40354I0J672D01*
G01*
X27559Y82677D02*
G03*
X25183Y83661I-2376J-2376D01*
G01*
X110233Y56102D02*
G03*
X107382Y54921I0J-4033D01*
G01*
X127165Y18697D02*
G03*
X125492Y22736I-5713J0D01*
G01*
X97679D02*
G03*
X97203Y22539I0J-672D01*
G01*
X96555Y11909D02*
G03*
X97203Y13474I-1565J1565D01*
G01*
X82677Y26579D02*
G03*
X84350Y22539I5713J0D01*
G01*
X96555Y11909D02*
G03*
X95472Y9296I2614J-2614D01*
G01*
X130387Y92416D02*
G03*
X129399Y94797I-3854J-204D01*
G01*
X130393Y92212D02*
G03*
X130387Y92416I-3859J0D01*
G01*
X125984Y93884D02*
G03*
X122125Y96260I-6925J-6925D01*
G01*
X102362Y52165D02*
G03*
X106227Y53766I0J5465D01*
G01*
X107283Y5906D02*
G03*
X109055Y10183I-4277J4277D01*
G01*
X126613Y97591D02*
X129262Y94941D01*
X96161Y90453D02*
X99433Y87181D01*
X102362Y60039D02*
X127464Y85141D01*
X99318Y60039D02*
X102362D01*
Y80110D01*
X91581Y83745D02*
Y92864D01*
X86662Y93012D02*
X89983D01*
X96949Y55914D02*
Y56696D01*
X83563Y55807D02*
X83921Y55449D01*
X109055Y10183D02*
Y14567D01*
X99878Y48843D02*
X100397Y48324D01*
X86850Y44685D02*
Y48378D01*
X89370Y29724D02*
X89689Y29405D01*
X85735Y33756D02*
X89090Y30401D01*
X89090Y30401D01*
X46555Y99213D02*
X122697D01*
X81299Y61272D02*
Y84933D01*
X72875Y32087D02*
X84449D01*
X72416Y32185D02*
X72638D01*
X70866Y5906D02*
Y10425D01*
X66929Y27559D02*
Y27670D01*
Y19930D02*
Y27559D01*
X53650Y96752D02*
X119060D01*
X42028Y33563D02*
X50210D01*
X42323Y12795D02*
Y32850D01*
X35433Y82677D02*
X46579Y93823D01*
X34917Y82161D02*
X35433Y82677D01*
X23425Y48532D02*
Y74580D01*
X26354Y41461D02*
X31323Y36492D01*
X38394Y33563D02*
X42028D01*
X32087Y11220D02*
Y21654D01*
X37738Y104429D02*
X103220D01*
X8024Y104331D02*
X37500D01*
X2854Y84350D02*
X6211D01*
X1799Y86898D02*
Y100898D01*
X10803Y64197D02*
X12008Y62992D01*
X7874Y71268D02*
Y83661D01*
X32480Y11220D02*
X40748D01*
X42323Y12795D01*
X4921Y11220D02*
X32087D01*
X12008Y62992D02*
X13583Y61417D01*
Y24409D02*
Y61417D01*
X35236Y62992D02*
X52354D01*
X59425Y60063D02*
X63921Y55567D01*
X66850Y44685D02*
Y48496D01*
X58071Y12795D02*
Y26744D01*
X60039Y31496D02*
X63921Y35378D01*
X23868Y21654D02*
X32087D01*
X86850Y62764D02*
Y83268D01*
X97441Y30512D02*
Y43889D01*
X89779Y55693D02*
X94512Y50960D01*
X66850Y42449D02*
Y44685D01*
X112205Y47843D02*
Y48228D01*
X115134Y40772D02*
X118110Y37795D01*
X115157Y5906D02*
X115181Y5929D01*
X83661Y38824D02*
Y39814D01*
X83071Y41240D02*
Y47531D01*
X79799Y54945D02*
X80142Y54602D01*
X76870Y62016D02*
Y72244D01*
X78221Y34547D02*
X81890D01*
X80610Y37894D02*
Y47591D01*
X75075Y55215D02*
X79134Y51156D01*
X72146Y62286D02*
Y77067D01*
X92520Y59646D02*
Y74134D01*
X57095Y52461D02*
X59214D01*
X43775Y43283D02*
X50024Y49532D01*
X35039Y40354D02*
X36704D01*
X15748Y83661D02*
X25183D01*
X110233Y56102D02*
X112205D01*
X106227Y53766D02*
X107382Y54921D01*
X127165Y15354D02*
Y18697D01*
X97679Y22736D02*
X125492D01*
X97203Y13474D02*
Y22539D01*
X95472Y5906D02*
Y9296D01*
X84350Y22539D02*
X97203D01*
X82677Y26579D02*
Y27559D01*
X112205Y48228D02*
X119210D01*
X111407Y13593D02*
X113681Y11319D01*
X75984Y35531D02*
X76083Y35433D01*
X86850Y37885D02*
Y44685D01*
X1799Y100898D02*
X3257Y102356D01*
X1799Y100898D02*
Y100898D01*
X118110Y13000D02*
Y15354D01*
X78740Y5906D02*
X87598D01*
X56850Y40566D02*
Y44685D01*
D11*
X89090Y30401D02*
D03*
D12*
X142337Y77244D02*
G03*
X142337Y77244I-4542J0D01*
G01*
Y67244D02*
G03*
X142337Y67244I-4542J0D01*
G01*
X125799Y96253D02*
G03*
X122653Y97862I-6740J-9294D01*
G01*
D02*
G03*
X119060Y98439I-3594J-10904D01*
G01*
X128361Y93884D02*
G03*
X125799Y96253I-2376J0D01*
G01*
X123618Y93661D02*
G03*
X128361Y93884I2366J223D01*
G01*
X121597Y94657D02*
G03*
X119060Y95065I-2537J-7698D01*
G01*
X123618Y93661D02*
G03*
X121597Y94657I-4559J-6702D01*
G01*
X142337Y57244D02*
G03*
X142337Y57244I-4542J0D01*
G01*
X121586Y48228D02*
G03*
X117536Y49916I-2376J0D01*
G01*
X142337Y47244D02*
G03*
X142337Y47244I-4542J0D01*
G01*
X117536Y46541D02*
G03*
X121586Y48228I1673J1687D01*
G01*
X105619Y102134D02*
G03*
X110349Y102461I2354J327D01*
G01*
D02*
G03*
X107703Y104822I-2376J0D01*
G01*
D02*
G03*
X106874Y105281I-4483J-7113D01*
G01*
X108155Y57399D02*
G03*
X106189Y56114I2078J-5329D01*
G01*
X105619Y102134D02*
G03*
X103220Y102742I-2399J-4425D01*
G01*
X114562Y44572D02*
G03*
X115501Y42928I7642J3271D01*
G01*
X110984Y44572D02*
G03*
X111601Y42928I11220J3271D01*
G01*
X105329Y51122D02*
G03*
X107420Y52573I-2967J6508D01*
G01*
X106896Y46891D02*
G03*
X105222Y49297I-2565J0D01*
G01*
X103440D02*
G03*
X106896Y46891I891J-2406D01*
G01*
X99128Y43889D02*
G03*
X95705Y52154I-11687J0D01*
G01*
X142337Y37244D02*
G03*
X142337Y37244I-4542J0D01*
G01*
Y27244D02*
G03*
X142337Y27244I-4542J0D01*
G01*
Y17244D02*
G03*
X142337Y17244I-4542J0D01*
G01*
X126685Y23929D02*
G03*
X125492Y24424I-1193J-1193D01*
G01*
X128633Y20487D02*
G03*
X126685Y23929I-7180J-1790D01*
G01*
X125058Y20487D02*
G03*
X124719Y21049I-3605J-1790D01*
G01*
X118026Y6814D02*
G03*
X119463Y10222I-9916J6186D01*
G01*
X115340Y13276D02*
G03*
X112014Y13269I-1659J-1957D01*
G01*
X111461Y10033D02*
G03*
X112909Y8873I2220J1286D01*
G01*
X97748Y10716D02*
G03*
X98891Y13474I-2758J2758D01*
G01*
X97745Y10713D02*
G03*
X97271Y9955I1424J-1418D01*
G01*
X93278Y78501D02*
G03*
X95282Y81004I-562J2503D01*
G01*
D02*
G03*
X90482Y79744I-2565J0D01*
G01*
X93488Y77080D02*
G03*
X93518Y77461I-2346J380D01*
G01*
D02*
G03*
X93278Y78501I-2376J0D01*
G01*
X87113Y92716D02*
G03*
X85581Y95065I-2565J0D01*
G01*
X89621Y87106D02*
G03*
X84080Y87106I-2770J0D01*
G01*
X90482Y79744D02*
G03*
X89617Y79283I660J-2283D01*
G01*
X88766Y77428D02*
G03*
X90662Y75133I2376J33D01*
G01*
X88538Y77232D02*
G03*
X88766Y77428I-1687J2197D01*
G01*
X84080Y79429D02*
G03*
X85163Y77232I2770J0D01*
G01*
X83514Y95065D02*
G03*
X87113Y92716I1033J-2348D01*
G01*
X94207Y74134D02*
G03*
X93488Y77080I-6392J0D01*
G01*
X90832Y74134D02*
G03*
X90662Y75133I-3017J0D01*
G01*
X94896Y59646D02*
G03*
X94207Y61319I-2376J0D01*
G01*
X90832D02*
G03*
X94896Y59646I1687J-1673D01*
G01*
X88538Y62764D02*
G03*
X90973Y56886I8313J0D01*
G01*
X85163Y62764D02*
G03*
X88586Y54500I11687J0D01*
G01*
X79620Y87106D02*
G03*
X74080Y87106I-2770J0D01*
G01*
Y79429D02*
G03*
X79620Y79429I2770J0D01*
G01*
X74522Y77067D02*
G03*
X70458Y75394I-2376J0D01*
G01*
X69621Y87106D02*
G03*
X68898Y88972I-2770J0D01*
G01*
Y77563D02*
G03*
X69621Y79429I-2047J1866D01*
G01*
X78557Y70571D02*
G03*
X79246Y72244I-1687J1673D01*
G01*
D02*
G03*
X75183Y70571I-2376J0D01*
G01*
X73833Y75394D02*
G03*
X74522Y77067I-1687J1673D01*
G01*
X78557Y62016D02*
G03*
X80992Y56138I8313J0D01*
G01*
X73833Y62286D02*
G03*
X76268Y56408I8313J0D01*
G01*
X75183Y62016D02*
G03*
X77151Y55524I11687J0D01*
G01*
X70458Y62286D02*
G03*
X73881Y54022I11687J0D01*
G01*
X95754Y43889D02*
G03*
X93319Y49767I-8313J0D01*
G01*
X89810Y48524D02*
G03*
X84440Y50240I-2959J0D01*
G01*
X85331Y38307D02*
G03*
X89810Y40846I1519J2540D01*
G01*
X88006Y27552D02*
G03*
X91935Y29724I1364J2173D01*
G01*
D02*
G03*
X86855Y30231I-2565J0D01*
G01*
X83083Y33354D02*
G03*
X85331Y38307I-5470J5470D01*
G01*
X95362Y13103D02*
G03*
X95516Y13474I-372J372D01*
G01*
X95362Y13103D02*
G03*
X93826Y9955I3807J-3807D01*
G01*
X84440Y50240D02*
G03*
X81335Y55795I-11369J-2709D01*
G01*
X74080Y40846D02*
G03*
X78311Y38492I2770J0D01*
G01*
X78311Y38492D02*
G03*
X78909Y36235I2300J-599D01*
G01*
X76619Y51284D02*
G03*
X74080Y48524I231J-2760D01*
G01*
X81890Y32860D02*
G03*
X83083Y33354I0J1687D01*
G01*
X81890Y32860D02*
G03*
X83083Y33354I0J1687D01*
G01*
X76457Y33203D02*
G03*
X78221Y32860I1764J4369D01*
G01*
X78254Y36235D02*
G03*
X76457Y33203I-2270J-703D01*
G01*
X69621Y48524D02*
G03*
X68898Y50390I-2770J0D01*
G01*
Y38980D02*
G03*
X69621Y40846I-2047J1866D01*
G01*
X84737Y24887D02*
G03*
X85123Y24227I3653J1691D01*
G01*
X81186Y24887D02*
G03*
X83157Y21346I7204J1691D01*
G01*
D02*
G03*
X84350Y20852I1193J1193D01*
G01*
X66929Y89875D02*
G03*
X64080Y87106I-79J-2769D01*
G01*
Y79429D02*
G03*
X66929Y76660I2770J0D01*
G01*
X59620Y87106D02*
G03*
X54080Y87106I-2770J0D01*
G01*
Y79429D02*
G03*
X59620Y79429I2770J0D01*
G01*
X66929Y54413D02*
G03*
X65115Y56760I-10079J-5917D01*
G01*
X63842Y52992D02*
G03*
X62728Y54374I-6992J-4496D01*
G01*
X63842Y52992D02*
G03*
X61895Y53522I-1539J-1811D01*
G01*
X64916Y50507D02*
G03*
X64677Y51297I-8066J-2011D01*
G01*
X59985Y50660D02*
G03*
X59214Y50773I-771J-2568D01*
G01*
X60618Y61256D02*
G03*
X52354Y64679I-8264J-8264D01*
G01*
X61895Y53522D02*
G03*
X59214Y54148I-2681J-5430D01*
G01*
X48228Y100900D02*
G03*
X48228Y97525I-1673J-1687D01*
G01*
X58232Y58870D02*
G03*
X52354Y61305I-5878J-5878D01*
G01*
X57095Y54148D02*
G03*
X48831Y50725I0J-11687D01*
G01*
X64080Y40846D02*
G03*
X64547Y39308I2770J0D01*
G01*
X64916Y50507D02*
G03*
X64080Y48524I1934J-1983D01*
G01*
X65115Y34185D02*
G03*
X66929Y36532I-8264J8264D01*
G01*
X62728Y36571D02*
G03*
X64547Y39308I-5878J5878D01*
G01*
X66929Y31941D02*
G03*
X66222Y31307I5487J-6828D01*
G01*
D02*
G03*
X65856Y30759I1193J-1193D01*
G01*
X59985Y50660D02*
G03*
X64679Y51181I2319J521D01*
G01*
X59809Y48524D02*
G03*
X58773Y50773I-2959J0D01*
G01*
X53891Y40846D02*
G03*
X59809Y40846I2959J0D01*
G01*
X58846Y32689D02*
G03*
X56384Y26744I5946J-5946D01*
G01*
X65856Y30759D02*
G03*
X65659Y30231I7458J-3089D01*
G01*
X65242Y19930D02*
G03*
X66744Y16303I5129J0D01*
G01*
X61233Y30303D02*
G03*
X59758Y26744I3559J-3559D01*
G01*
X54538Y50370D02*
G03*
X53891Y48524I2312J-1847D01*
G01*
X54538Y50370D02*
G03*
X51217Y48338I2557J-7910D01*
G01*
X36704Y38667D02*
G03*
X44969Y42090I0J11687D01*
G01*
X36704Y42042D02*
G03*
X42582Y44476I0J8313D01*
G01*
X32101Y98425D02*
G03*
X29243Y102643I-4542J0D01*
G01*
X25875D02*
G03*
X32101Y98425I1684J-4218D01*
G01*
X22101D02*
G03*
X19243Y102643I-4542J0D01*
G01*
X15875D02*
G03*
X22101Y98425I1684J-4218D01*
G01*
X12101D02*
G03*
X9243Y102643I-4542J0D01*
G01*
X3486Y96415D02*
G03*
X12101Y98425I4073J2010D01*
G01*
X3486Y86898D02*
G03*
X3691Y86038I1915J0D01*
G01*
X1018Y83937D02*
G03*
X1661Y83157I4384J2961D01*
G01*
D02*
G03*
X2854Y82663I1193J1193D01*
G01*
X36012Y42042D02*
G03*
X36415Y38667I-1448J-1884D01*
G01*
X11895Y24409D02*
G03*
X12141Y23532I1687J0D01*
G01*
X140113Y81150D02*
X144651D01*
X141918Y79150D02*
X144651D01*
X142336Y77150D02*
X144651D01*
X141825Y75150D02*
X144651D01*
X139761Y73150D02*
X144651D01*
X139150Y81579D02*
Y105281D01*
X141150Y80306D02*
Y105281D01*
X137150Y81740D02*
Y105281D01*
Y71740D02*
Y72749D01*
X139150Y71579D02*
Y72909D01*
X135150Y80936D02*
Y105281D01*
X140113Y71150D02*
X144651D01*
X141918Y69150D02*
X144651D01*
X142336Y67150D02*
X144651D01*
X141825Y65150D02*
X144651D01*
X139761Y63150D02*
X144651D01*
X141150Y70306D02*
Y74182D01*
Y60306D02*
Y64182D01*
X135150Y70936D02*
Y73553D01*
X139150Y61579D02*
Y62909D01*
X135150Y60936D02*
Y63552D01*
X107135Y105150D02*
X144651D01*
X110247Y103150D02*
X144651D01*
X106874Y105281D02*
X144651D01*
X124346Y97150D02*
X144651D01*
X109955Y101150D02*
X144651D01*
X123150Y97686D02*
Y105281D01*
X125150Y96691D02*
Y105281D01*
X119150Y98439D02*
Y105281D01*
X121150Y98247D02*
Y105281D01*
X127150Y95955D02*
Y105281D01*
X127995Y95150D02*
X144651D01*
X128244Y93150D02*
X144651D01*
X125150Y42928D02*
Y91659D01*
X119150Y50604D02*
Y95064D01*
X121150Y49601D02*
Y94790D01*
X123150Y42928D02*
Y93957D01*
X141918Y59150D02*
X144651D01*
X142336Y57150D02*
X144651D01*
X140113Y61150D02*
X144651D01*
X141825Y55150D02*
X144651D01*
X140113Y51150D02*
X144651D01*
X139761Y53150D02*
X144651D01*
X139150Y51579D02*
Y52909D01*
X141150Y50306D02*
Y54182D01*
X137150Y61740D02*
Y62748D01*
X141918Y49150D02*
X144651D01*
X137150Y51740D02*
Y52749D01*
X142336Y47150D02*
X144651D01*
X141825Y45150D02*
X144651D01*
X139761Y43150D02*
X144651D01*
X141918Y39150D02*
X144651D01*
X142336Y37150D02*
X144651D01*
X140113Y41150D02*
X144651D01*
X139150Y41579D02*
Y42909D01*
X141150Y40306D02*
Y44182D01*
X135150Y40936D02*
Y43553D01*
X141825Y35150D02*
X144651D01*
X137150Y41740D02*
Y42748D01*
X116254Y55150D02*
X133765D01*
X105518Y61150D02*
X135477D01*
X116254Y53150D02*
X135830D01*
X135150Y50936D02*
Y53553D01*
X116254Y51150D02*
X135477D01*
X116254Y57150D02*
X133255D01*
X116254Y59150D02*
X133673D01*
X121400Y49150D02*
X133673D01*
X121327Y47150D02*
X133255D01*
X116254Y45150D02*
X133765D01*
X115344Y43150D02*
X135830D01*
X125408Y39150D02*
X133673D01*
X125408Y35150D02*
X133765D01*
X125408Y41150D02*
X135477D01*
X119150Y42928D02*
Y45853D01*
X121150Y42928D02*
Y46856D01*
X125408Y37150D02*
X133255D01*
X115501Y42928D02*
X125408D01*
X115150Y98439D02*
Y105281D01*
X117150Y98439D02*
Y105281D01*
X113150Y98439D02*
Y105281D01*
X111150Y98439D02*
Y105281D01*
Y59758D02*
Y95065D01*
X109150Y104525D02*
Y105281D01*
Y98439D02*
Y100396D01*
Y59758D02*
Y95065D01*
X107150Y98439D02*
Y100231D01*
X115150Y59758D02*
Y95065D01*
X117150Y49916D02*
Y95065D01*
X113150Y59758D02*
Y95065D01*
X108155Y59758D02*
X116254D01*
Y52447D02*
Y59758D01*
X105518Y59150D02*
X108155D01*
Y57399D02*
Y59758D01*
X107150Y56887D02*
Y95065D01*
X105518Y56982D02*
Y63097D01*
Y57150D02*
X107604D01*
X105150Y98439D02*
Y102357D01*
X103150Y98439D02*
Y102742D01*
Y63097D02*
Y95065D01*
X105150Y63097D02*
Y95065D01*
X99206Y63097D02*
X105518D01*
X99150Y98439D02*
Y102742D01*
X101150Y98439D02*
Y102742D01*
X97150Y98439D02*
Y102742D01*
X101150Y63097D02*
Y95065D01*
X99206Y56982D02*
X105518D01*
X105150Y55075D02*
Y56982D01*
X105108Y55034D02*
X106186Y56112D01*
X103150Y55034D02*
Y56982D01*
X99206D02*
Y63097D01*
X97150Y50396D02*
Y95065D01*
X101150Y55034D02*
Y56982D01*
X99395Y49297D02*
Y55034D01*
X113150Y51884D02*
Y52447D01*
X115150Y51884D02*
Y52447D01*
X108155D02*
X116254D01*
Y49916D02*
Y51884D01*
Y49916D02*
X117536D01*
X108155Y51884D02*
X116254D01*
X108155Y52447D02*
Y53308D01*
X111150Y51884D02*
Y52447D01*
X107424Y52577D02*
X108155Y53308D01*
X109150Y51884D02*
Y52447D01*
X106883Y47150D02*
X108155D01*
X116254Y44572D02*
Y46541D01*
X117150Y42928D02*
Y46541D01*
X116254D02*
X117536D01*
X114562Y44572D02*
X116254D01*
X115150Y43447D02*
Y44572D01*
X108155D02*
Y51884D01*
Y44572D02*
X110984D01*
X111150Y42928D02*
Y44051D01*
X110813Y42928D02*
X111601D01*
X105388Y51150D02*
X108155D01*
X99395Y55034D02*
X105108D01*
X105329Y49297D02*
Y51122D01*
X105547Y49150D02*
X108155D01*
X99395Y49297D02*
X103440D01*
X97878Y49150D02*
X103114D01*
X96600Y51150D02*
X99395D01*
X98664Y47150D02*
X101778D01*
X106214Y45150D02*
X108155D01*
X99128Y43150D02*
X111501D01*
X99128Y41150D02*
X110813D01*
X99128Y37150D02*
X110813D01*
X99128Y35150D02*
X110813D01*
X99128Y39150D02*
X110813D01*
X99060Y45150D02*
X102447D01*
X140113Y31150D02*
X144651D01*
X141918Y29150D02*
X144651D01*
X139761Y33150D02*
X144651D01*
X142336Y27150D02*
X144651D01*
X141825Y25150D02*
X144651D01*
X139761Y23150D02*
X144651D01*
X135150Y30936D02*
Y33553D01*
X141150Y30306D02*
Y34182D01*
X137150Y31740D02*
Y32748D01*
X139150Y31579D02*
Y32909D01*
X143150Y1018D02*
Y105281D01*
X144651Y1018D02*
Y105281D01*
X141150Y20306D02*
Y24182D01*
X139150Y21579D02*
Y22909D01*
X140113Y21150D02*
X144651D01*
X131150Y1018D02*
Y105281D01*
X133150Y1018D02*
Y105281D01*
X129150Y20487D02*
Y105281D01*
X137150Y21740D02*
Y22749D01*
X135150Y20936D02*
Y23552D01*
X125408Y33150D02*
X135830D01*
X102081Y31150D02*
X135477D01*
X102081Y29150D02*
X133673D01*
X102081Y24424D02*
X125492D01*
X102081Y25150D02*
X133765D01*
X125408Y32663D02*
Y42928D01*
X125150Y24424D02*
Y32663D01*
X110813D02*
X125408D01*
X123150Y24424D02*
Y32663D01*
X121150Y24424D02*
Y32663D01*
X127150Y23420D02*
Y91813D01*
X127363Y23150D02*
X135830D01*
X128434Y21150D02*
X135477D01*
X128633Y20487D02*
X129935D01*
X121150Y1018D02*
Y21049D01*
X123150Y1018D02*
Y21049D01*
X102081D02*
X124719D01*
X124395Y20487D02*
X125058D01*
X115340D02*
X120880D01*
X141918Y19150D02*
X144651D01*
X142336Y17150D02*
X144651D01*
X141825Y15150D02*
X144651D01*
X139761Y13150D02*
X144651D01*
X142337Y11150D02*
X144651D01*
X133254Y11786D02*
X142337D01*
X135150D02*
Y13553D01*
X141150Y11786D02*
Y14182D01*
X129935Y15150D02*
X133765D01*
X139150Y11786D02*
Y12909D01*
X137150Y11786D02*
Y12749D01*
X142337Y9150D02*
X144651D01*
X142337Y7150D02*
X144651D01*
X142337Y2702D02*
Y11786D01*
Y5150D02*
X144651D01*
X142337Y3150D02*
X144651D01*
X133254Y2702D02*
X142337D01*
X135150Y1018D02*
Y2702D01*
X137150Y1018D02*
Y2702D01*
X133254D02*
Y11786D01*
X141150Y1018D02*
Y2702D01*
X139150Y1018D02*
Y2702D01*
X129935Y19150D02*
X133673D01*
X129935Y17150D02*
X133255D01*
X120880D02*
X124395D01*
X129935Y13150D02*
X135830D01*
X129935Y11150D02*
X133254D01*
X124395Y10222D02*
X129935D01*
X120880Y19150D02*
X124395D01*
Y10222D02*
Y20487D01*
X120880Y15150D02*
X124395D01*
X120880Y11150D02*
X124395D01*
X120880Y13150D02*
X124395D01*
X129935Y10222D02*
Y20487D01*
X129150Y1018D02*
Y10222D01*
X119145Y9150D02*
X133254D01*
X118228Y7150D02*
X133254D01*
X118026Y5150D02*
X133254D01*
X118026Y3150D02*
X133254D01*
X125150Y1018D02*
Y10222D01*
X127150Y1018D02*
Y10222D01*
X120880D02*
Y20487D01*
X119463Y10222D02*
X120880D01*
X117150Y24424D02*
Y32663D01*
X119150Y24424D02*
Y32663D01*
X115150Y24424D02*
Y32663D01*
X113150Y24424D02*
Y32663D01*
X111150Y20676D02*
Y21049D01*
X106096Y20676D02*
X112014D01*
X110813Y32663D02*
Y42928D01*
X109150Y24424D02*
Y44572D01*
X107150Y24424D02*
Y52316D01*
X111150Y24424D02*
Y32663D01*
X109150Y20676D02*
Y21049D01*
X107150Y20676D02*
Y21049D01*
X117150Y20487D02*
Y21049D01*
X119150Y20487D02*
Y21049D01*
X115150Y13422D02*
Y21049D01*
X112014Y19150D02*
X115340D01*
Y13276D02*
Y20487D01*
X112014Y17150D02*
X115340D01*
X113150Y13829D02*
Y21049D01*
X112014Y13269D02*
Y20676D01*
X106096Y10033D02*
Y20676D01*
X101150Y33676D02*
Y49297D01*
X102081Y27348D02*
Y33676D01*
X99128D02*
X102081D01*
Y33150D02*
X110813D01*
X102081Y24424D02*
Y25802D01*
X101150D02*
Y27348D01*
X99128Y33676D02*
Y43889D01*
X99150Y33676D02*
Y95065D01*
X95754Y33676D02*
Y43889D01*
X99150Y25802D02*
Y27348D01*
X97150Y25802D02*
Y27348D01*
X103150Y24424D02*
Y44614D01*
X105150Y24424D02*
Y44460D01*
X103150Y1018D02*
Y21049D01*
X98891Y19150D02*
X106096D01*
X105150Y9061D02*
Y21049D01*
X98891Y17150D02*
X106096D01*
X102081Y19474D02*
Y21049D01*
X101150Y1018D02*
Y19474D01*
X98891D02*
X102081D01*
X99150Y1018D02*
Y19474D01*
X98891Y13474D02*
Y19474D01*
X112014Y15150D02*
X115340D01*
X112289Y8873D02*
X112909D01*
X110341Y5150D02*
X112289D01*
X109150Y9061D02*
Y10033D01*
X110341Y7150D02*
X112289D01*
X118026Y2939D02*
Y6814D01*
X119150Y1018D02*
Y9163D01*
X112289Y2939D02*
X118026D01*
X115150Y1018D02*
Y2939D01*
X117150Y1018D02*
Y2939D01*
X113150Y1018D02*
Y2939D01*
X112289D02*
Y8873D01*
X111150Y1018D02*
Y10033D01*
X110341Y2750D02*
Y9061D01*
Y3150D02*
X112289D01*
X109150Y1018D02*
Y2750D01*
X106096Y10033D02*
X111461D01*
X98122Y11150D02*
X106096D01*
X104226Y9061D02*
X110341D01*
X107150D02*
Y10033D01*
X99128Y9150D02*
X112312D01*
X98891Y15150D02*
X106096D01*
X98877Y13150D02*
X106096D01*
X97271Y9955D02*
X99128D01*
Y5150D02*
X104226D01*
X105150Y1018D02*
Y2750D01*
X107150Y1018D02*
Y2750D01*
X104226D02*
X110341D01*
X104226D02*
Y9061D01*
X99128Y1856D02*
Y9955D01*
Y7150D02*
X104226D01*
X99128Y3150D02*
X104226D01*
X97150Y1018D02*
Y1856D01*
X95150Y98439D02*
Y102742D01*
Y81817D02*
Y95065D01*
X89620Y87150D02*
X144651D01*
X94123Y83150D02*
X144651D01*
X95278Y81150D02*
X135477D01*
X89621Y85150D02*
X144651D01*
X93150Y98439D02*
Y102742D01*
Y83533D02*
Y95065D01*
X91150Y98439D02*
Y102742D01*
X89621Y83150D02*
X91311D01*
X91150Y83035D02*
Y95065D01*
X89621Y81150D02*
X90155D01*
X94489Y79150D02*
X133673D01*
X95150Y52709D02*
Y80191D01*
X93498Y77150D02*
X133255D01*
X89621Y79429D02*
Y87106D01*
X68898Y99150D02*
X144651D01*
X68898Y98439D02*
X119060D01*
X68898Y101150D02*
X105990D01*
X87076Y93150D02*
X123724D01*
X86579Y91150D02*
X144651D01*
X85581Y95065D02*
X119060D01*
X87150Y98439D02*
Y102742D01*
X89150Y98439D02*
Y102742D01*
X68898D02*
X103220D01*
X88721Y89150D02*
X144651D01*
X89150Y88651D02*
Y95065D01*
X87150Y89860D02*
Y95065D01*
X88538Y62764D02*
Y77232D01*
X85163Y62764D02*
Y77232D01*
X94207Y73150D02*
X135830D01*
X94207Y71150D02*
X135477D01*
X94126Y75150D02*
X133765D01*
X94207Y65150D02*
X133765D01*
X94207Y63150D02*
X135830D01*
X94207Y69150D02*
X133673D01*
X94207Y61319D02*
Y74134D01*
Y67150D02*
X133255D01*
X90832Y61319D02*
Y74134D01*
X94360Y61150D02*
X99206D01*
X94844Y59150D02*
X99206D01*
X92709Y55150D02*
X105224D01*
X94709Y53150D02*
X99395D01*
X90720Y57150D02*
X99206D01*
X89365Y59150D02*
X90196D01*
X89150Y59634D02*
Y76165D01*
X93150Y54709D02*
Y57354D01*
X91150Y56709D02*
Y57704D01*
X88538Y75150D02*
X90588D01*
X88538Y73150D02*
X90832D01*
X79067D02*
X85163D01*
X88538Y69150D02*
X90832D01*
X88538Y67150D02*
X90832D01*
X88538Y71150D02*
X90832D01*
X78979D02*
X85163D01*
X78557Y69150D02*
X85163D01*
X78424Y77150D02*
X85163D01*
X78557Y65150D02*
X85163D01*
X78557Y67150D02*
X85163D01*
X88538Y63150D02*
X90832D01*
X88538Y65150D02*
X90832D01*
X88696Y61150D02*
X90680D01*
X83319Y53150D02*
X89936D01*
X78603Y61150D02*
X85275D01*
X79067Y59150D02*
X85736D01*
X78557Y63150D02*
X85163D01*
X81934Y55150D02*
X87984D01*
X80131Y57150D02*
X86600D01*
X83150Y98439D02*
Y102742D01*
X85150Y98439D02*
Y102742D01*
Y89293D02*
Y90223D01*
X78721Y89150D02*
X84980D01*
X77150Y98439D02*
Y102742D01*
X79150Y98439D02*
Y102742D01*
X75150Y98439D02*
Y102742D01*
X81150Y98439D02*
Y102742D01*
X77150Y89860D02*
Y95065D01*
X75150Y89293D02*
Y95065D01*
X84080Y79429D02*
Y87106D01*
X83150Y53448D02*
Y90565D01*
X79620Y87150D02*
X84081D01*
X79620Y83150D02*
X84080D01*
X79620Y81150D02*
X84080D01*
X79620Y85150D02*
X84080D01*
X79150Y88651D02*
Y95065D01*
X81150Y55981D02*
Y95065D01*
X79620Y79429D02*
Y87106D01*
X73150Y98439D02*
Y102742D01*
X68898Y95065D02*
X83514D01*
X68898Y93150D02*
X82019D01*
X68898Y89150D02*
X74980D01*
X69620Y87150D02*
X74081D01*
X68898Y91150D02*
X82516D01*
X69150Y98439D02*
Y102742D01*
X71150Y98439D02*
Y102742D01*
X68898Y98439D02*
Y102742D01*
X69150Y88651D02*
Y95065D01*
X68898Y88972D02*
Y95065D01*
X69621Y85150D02*
X74080D01*
Y79429D02*
Y87106D01*
X69621Y83150D02*
X74080D01*
X73290Y79150D02*
X74094D01*
X69621Y81150D02*
X74080D01*
X71150Y79224D02*
Y95065D01*
X73150Y79221D02*
Y95065D01*
X69621Y79429D02*
Y87106D01*
X79606Y79150D02*
X84094D01*
X79150Y72916D02*
Y77884D01*
X77150Y74604D02*
Y76675D01*
X78557Y62016D02*
Y70571D01*
X74521Y77150D02*
X75276D01*
X75150Y73883D02*
Y77243D01*
X73833Y71150D02*
X74761D01*
X73833Y73150D02*
X74673D01*
X79150Y58935D02*
Y71573D01*
X80994Y56136D02*
X81333Y55797D01*
X76270Y56406D02*
X77151Y55524D01*
X75183Y62016D02*
Y70571D01*
X75150Y57797D02*
Y70605D01*
X73911Y61150D02*
X75215D01*
X75610Y57150D02*
X76244D01*
X74447Y59150D02*
X75540D01*
X69606Y79150D02*
X71001D01*
X73833Y75150D02*
X85163D01*
X68898D02*
X70458D01*
X73833Y67150D02*
X75183D01*
X73833Y65150D02*
X75183D01*
X73833Y69150D02*
X75183D01*
X68898Y73150D02*
X70458D01*
X68898Y71150D02*
X70458D01*
X68898Y77150D02*
X69771D01*
X68898Y67150D02*
X70458D01*
X68898Y69150D02*
X70458D01*
X73833Y63150D02*
X75183D01*
X73833Y62286D02*
Y75394D01*
X68898Y55150D02*
X72890D01*
X68898Y53150D02*
X74753D01*
X68898Y57150D02*
X71647D01*
X68898Y65150D02*
X70458D01*
Y62286D02*
Y75394D01*
X68898Y63150D02*
X70458D01*
X68898Y59150D02*
X70887D01*
X68898Y61150D02*
X70514D01*
X90975Y56884D02*
X95703Y52156D01*
X89810Y43150D02*
X95754D01*
X89810Y41150D02*
X95754D01*
X92801Y33676D02*
X95754D01*
X89275Y39150D02*
X95754D01*
X89810Y40846D02*
Y48524D01*
X93150Y33676D02*
Y49936D01*
X89742Y49150D02*
X93877D01*
X89810Y47150D02*
X95087D01*
X95150Y33676D02*
Y47000D01*
X89810Y45150D02*
X95657D01*
X91870Y29150D02*
X92801D01*
Y27348D02*
Y33676D01*
X91503Y31150D02*
X92801D01*
X93150Y25802D02*
Y27348D01*
X95150Y25802D02*
Y27348D01*
X92801D02*
X102081D01*
X91150Y31572D02*
Y51936D01*
Y24227D02*
Y27877D01*
X88214Y51150D02*
X91936D01*
X88588Y54498D02*
X93317Y49769D01*
X85165Y37150D02*
X95754D01*
X87150Y51468D02*
Y56246D01*
X89150Y50386D02*
Y53936D01*
X84184Y51150D02*
X85487D01*
X84420Y35150D02*
X95754D01*
X89150Y32280D02*
Y38984D01*
X82835Y33150D02*
X92801D01*
X88006Y24887D02*
Y27552D01*
X87150Y31009D02*
Y37903D01*
X85150Y30231D02*
Y37080D01*
X77348Y30231D02*
X86855D01*
X68898Y31150D02*
X87237D01*
X92801Y25802D02*
X102081D01*
X95516Y13474D02*
Y19474D01*
X92801D02*
X95516D01*
X95150Y12878D02*
Y19474D01*
X92801Y24227D02*
Y25802D01*
Y19474D02*
Y20852D01*
X91150Y9955D02*
Y20852D01*
X93150Y9955D02*
Y19474D01*
X91817Y9955D02*
X93826D01*
X91254Y5150D02*
X91817D01*
X91254Y3150D02*
X91817D01*
X91254Y9150D02*
X91817D01*
X93150Y1018D02*
Y1856D01*
X95150Y1018D02*
Y1856D01*
X91817D02*
X99128D01*
X91254D02*
Y9955D01*
X91817Y1856D02*
Y9955D01*
X91254Y7150D02*
X91817D01*
X91150Y1018D02*
Y1856D01*
X89150Y1018D02*
Y1856D01*
X88006Y27150D02*
X133255D01*
X88006Y25150D02*
X92801D01*
X85123Y24227D02*
X92801D01*
X68898Y17150D02*
X95516D01*
X68898Y15150D02*
X95516D01*
X68898Y19150D02*
X95516D01*
X85150Y24227D02*
Y24887D01*
X89150Y24227D02*
Y27169D01*
X84737Y24887D02*
X88006D01*
X87150Y24227D02*
Y24887D01*
X84350Y20852D02*
X92801D01*
X68898Y11150D02*
X94114D01*
X83943Y9955D02*
X91254D01*
X68898Y13150D02*
X95404D01*
X83943Y1856D02*
X91254D01*
X68898Y1150D02*
X144651D01*
X68898Y1018D02*
X144651D01*
X87150Y9955D02*
Y20852D01*
X89150Y9955D02*
Y20852D01*
X85150Y9955D02*
Y20852D01*
X87150Y1018D02*
Y1856D01*
X85150Y1018D02*
Y1856D01*
Y50945D02*
Y77243D01*
X78254Y36235D02*
X78909D01*
X77725Y37150D02*
X78353D01*
X75150Y50710D02*
Y52754D01*
X73884Y54020D02*
X76619Y51284D01*
X75150Y37756D02*
Y38660D01*
X77150Y37602D02*
Y38093D01*
X74080Y40846D02*
Y48524D01*
X83150Y30231D02*
Y33422D01*
X79150Y30231D02*
Y32860D01*
X81150Y30231D02*
Y32860D01*
X78221D02*
X81890D01*
X75150Y1018D02*
Y33307D01*
X77348Y24887D02*
Y30231D01*
X77150Y8873D02*
Y32983D01*
X69549Y49150D02*
X74152D01*
X69621Y47150D02*
X74080D01*
X68898Y51150D02*
X75969D01*
X69621Y45150D02*
X74080D01*
X69621Y41150D02*
X74080D01*
X69040Y39150D02*
X74661D01*
X68898Y50390D02*
Y77563D01*
X69150Y50068D02*
Y77884D01*
X69621Y43150D02*
X74080D01*
X69621Y40846D02*
Y48524D01*
X68898Y37150D02*
X74244D01*
X73150Y9061D02*
Y54825D01*
X68898Y35150D02*
X73639D01*
X68898Y30420D02*
X72447D01*
Y29150D02*
X77348D01*
X68898Y33150D02*
X76594D01*
X69150Y30420D02*
Y39301D01*
X71150Y30420D02*
Y58326D01*
X72447Y24698D02*
Y30420D01*
X68898D02*
Y38980D01*
X83150Y7593D02*
Y21354D01*
X83943Y7593D02*
Y9955D01*
X81609Y7593D02*
X83943D01*
X79150Y8873D02*
Y24887D01*
X81150Y8873D02*
Y24887D01*
X77348D02*
X81186D01*
X81609Y7593D02*
Y8873D01*
X75872D02*
X81609D01*
X83943Y1856D02*
Y4218D01*
X83150Y1018D02*
Y4218D01*
X81609D02*
X83943D01*
X81609Y3150D02*
X83943D01*
X81609Y2939D02*
Y4218D01*
X75872Y2939D02*
X81609D01*
X75872D02*
Y8873D01*
X77150Y1018D02*
Y2939D01*
X73924Y2750D02*
Y9061D01*
X81150Y1018D02*
Y2939D01*
X79150Y1018D02*
Y2939D01*
X72447Y27150D02*
X77348D01*
X72447Y25150D02*
X77348D01*
X68898Y23150D02*
X81832D01*
X68898Y9150D02*
X83943D01*
X68898Y9061D02*
X73924D01*
X68898Y21150D02*
X83393D01*
X68898Y24698D02*
X72447D01*
X71150Y9061D02*
Y24698D01*
X69150Y9061D02*
Y24698D01*
X68898Y9061D02*
Y24698D01*
X73924Y7150D02*
X75872D01*
X73924Y5150D02*
X75872D01*
X73924Y3150D02*
X75872D01*
X73150Y1018D02*
Y2750D01*
X68898D02*
X73924D01*
X71150Y1018D02*
Y2750D01*
X69150Y1018D02*
Y2750D01*
X68898Y1018D02*
Y2750D01*
X66929Y100900D02*
Y102742D01*
X65150Y100900D02*
Y102742D01*
X66929Y89875D02*
Y97525D01*
X63150Y100900D02*
Y102742D01*
X61150Y100900D02*
Y102742D01*
X65150Y89293D02*
Y97525D01*
X59620Y85150D02*
X64080D01*
X59620Y81150D02*
X64080D01*
X59620Y83150D02*
X64080D01*
X65150Y56725D02*
Y77243D01*
X63150Y58725D02*
Y97525D01*
X61150Y60725D02*
Y97525D01*
X64080Y79429D02*
Y87106D01*
X59620Y79429D02*
Y87106D01*
X47932Y101150D02*
X66929D01*
X42101Y102742D02*
X66929D01*
X48228Y97525D02*
X66929D01*
X48228Y100900D02*
X66929D01*
X59150D02*
Y102742D01*
X47735Y97150D02*
X66929D01*
X58721Y89150D02*
X64980D01*
X42101Y95150D02*
X66929D01*
X59620Y87150D02*
X64081D01*
X59606Y79150D02*
X64094D01*
X58424Y77150D02*
X65276D01*
X59150Y88651D02*
Y97525D01*
Y62501D02*
Y77884D01*
X62725Y59150D02*
X66929D01*
X60725Y61150D02*
X66929D01*
X66459Y55150D02*
X66929D01*
X64725Y57150D02*
X66929D01*
Y54413D02*
Y76660D01*
X60620Y61254D02*
X65113Y56762D01*
X61150Y53830D02*
Y55952D01*
X63536Y49150D02*
X64152D01*
X63150Y53402D02*
Y53920D01*
X59742Y49150D02*
X61070D01*
X43912Y73150D02*
X66929D01*
X43912Y75150D02*
X66929D01*
X43912Y69150D02*
X66929D01*
X43912Y71150D02*
X66929D01*
X43912Y65150D02*
X66929D01*
X43912Y67150D02*
X66929D01*
X58135Y63150D02*
X66929D01*
X58234Y58868D02*
X62726Y54376D01*
X43912Y57150D02*
X59952D01*
X43912Y55150D02*
X61952D01*
X58773Y50773D02*
X59214D01*
X57095Y54148D02*
X59214D01*
X59150Y50386D02*
Y50773D01*
X53150Y100900D02*
Y102742D01*
X51150Y100900D02*
Y102742D01*
X57150Y100900D02*
Y102742D01*
X55150Y100900D02*
Y102742D01*
X49150Y100900D02*
Y102742D01*
X47150Y101513D02*
Y102742D01*
X45150Y101129D02*
Y102742D01*
X57150Y89860D02*
Y97525D01*
X55150Y89293D02*
Y97525D01*
X54080Y79429D02*
Y87106D01*
X53150Y64652D02*
Y97525D01*
X51150Y64679D02*
Y97525D01*
X49150Y64679D02*
Y97525D01*
X47150Y64679D02*
Y96912D01*
X45150Y64679D02*
Y97296D01*
X42101Y101150D02*
X45178D01*
X42101Y93884D02*
Y102742D01*
Y97150D02*
X45375D01*
X42101Y99150D02*
X44180D01*
X33150Y85833D02*
Y93884D01*
X33017D02*
Y102643D01*
X37150Y85833D02*
Y93884D01*
X33017D02*
X42101D01*
X43150Y78557D02*
Y102742D01*
X41150Y78557D02*
Y93884D01*
X39150Y78557D02*
Y93884D01*
X38491Y79521D02*
Y85833D01*
X35150D02*
Y93884D01*
X32376Y79521D02*
Y85833D01*
X57150Y63650D02*
Y76675D01*
X59150Y54148D02*
Y57952D01*
X57150Y54148D02*
Y59782D01*
X55150Y64340D02*
Y77243D01*
X43912Y64679D02*
Y78557D01*
X55150Y53985D02*
Y60821D01*
X43912Y64679D02*
X52354D01*
X53150Y53462D02*
Y61267D01*
X51150Y52523D02*
Y61305D01*
X52160Y49150D02*
X53958D01*
X49150Y51032D02*
Y61305D01*
X47150Y49044D02*
Y61305D01*
X43912Y49150D02*
X47256D01*
X38491Y83150D02*
X54080D01*
X38491Y85150D02*
X54080D01*
X38491Y81150D02*
X54080D01*
X35150Y78557D02*
Y79521D01*
X33150Y78557D02*
Y79521D01*
X43912Y61150D02*
X53952D01*
X43912Y77150D02*
X55276D01*
X43912Y53150D02*
X52368D01*
X43912Y59150D02*
X57938D01*
X43912Y61305D02*
X52354D01*
X37150Y78557D02*
Y79521D01*
X43912Y51150D02*
X49279D01*
X65978Y35150D02*
X66929D01*
X63150Y37025D02*
Y48961D01*
X61150Y34993D02*
Y49103D01*
X64080Y40846D02*
Y48524D01*
X66929Y31941D02*
Y36532D01*
X64079Y33150D02*
X66929D01*
X65150Y30231D02*
Y34220D01*
X61235Y30305D02*
X65113Y34183D01*
X63150Y30231D02*
Y32220D01*
X62079Y31150D02*
X66083D01*
X59809Y47150D02*
X64080D01*
X59809Y41150D02*
X64080D01*
X59809Y45150D02*
X64080D01*
X59809Y40846D02*
Y48524D01*
Y43150D02*
X64080D01*
X59275Y39150D02*
X64480D01*
X59150Y32993D02*
Y38984D01*
X58848Y32691D02*
X62726Y36569D01*
X57150Y30250D02*
Y37903D01*
X61600Y30231D02*
X65659D01*
X63400Y15150D02*
X66929D01*
X63150Y15467D02*
Y24887D01*
X61600D02*
Y30231D01*
X65242Y19930D02*
Y24887D01*
X61600D02*
X65242D01*
X66929Y1018D02*
Y16112D01*
X65150Y1018D02*
Y24887D01*
X63400Y11150D02*
X66929D01*
X63400Y13150D02*
X66929D01*
X63400Y10124D02*
Y15467D01*
X63150Y1018D02*
Y10124D01*
X61150Y1018D02*
Y10124D01*
X59758Y21150D02*
X65242D01*
X59758Y23150D02*
X65242D01*
X59758Y17150D02*
X66060D01*
X59758Y19150D02*
X65301D01*
X60370Y29150D02*
X61600D01*
X59775Y27150D02*
X61600D01*
X59758Y25150D02*
X61600D01*
X61150Y15467D02*
Y30218D01*
X59758Y15467D02*
X63400D01*
X52742Y10124D02*
X63400D01*
X37605Y9150D02*
X66929D01*
X59758Y15467D02*
Y26744D01*
X59150Y1018D02*
Y10124D01*
X57150Y1018D02*
Y10124D01*
X50028Y47150D02*
X53891D01*
X45150Y47044D02*
Y61305D01*
X43912Y47427D02*
Y61305D01*
X48028Y45150D02*
X53891D01*
X46028Y43150D02*
X53891D01*
Y40846D02*
Y48524D01*
X53150Y15467D02*
Y49777D01*
X51150Y1018D02*
Y48271D01*
X44971Y42092D02*
X51215Y48336D01*
X49150Y1018D02*
Y46271D01*
X47150Y15656D02*
Y44271D01*
X45150Y15656D02*
Y42271D01*
X43150Y45044D02*
Y47427D01*
X42584Y44479D02*
X48829Y50723D01*
X41150Y43330D02*
Y47427D01*
X39150Y42410D02*
Y47427D01*
X37150Y42054D02*
Y47427D01*
X35150Y42461D02*
Y47427D01*
X36012Y42042D02*
X36704D01*
X33150Y42067D02*
Y47427D01*
X43906Y41150D02*
X53891D01*
X43150Y15656D02*
Y40605D01*
X40029Y39150D02*
X54426D01*
X41150Y15656D02*
Y39545D01*
X39150Y15656D02*
Y38926D01*
X56384Y15467D02*
Y26744D01*
X55150Y15467D02*
Y38425D01*
X52742Y15467D02*
X56384D01*
X47841Y15150D02*
X52742D01*
X47841Y13150D02*
X52742D01*
X47841Y11150D02*
X52742D01*
Y10124D02*
Y15467D01*
X47841Y9935D02*
Y15656D01*
X55150Y1018D02*
Y10124D01*
X53150Y1018D02*
Y10124D01*
X45150Y1018D02*
Y9935D01*
X43150Y1018D02*
Y9935D01*
X47150Y1018D02*
Y9935D01*
X37150Y15656D02*
Y38675D01*
X36805Y15656D02*
X47841D01*
X37605Y9935D02*
X47841D01*
X35150Y14967D02*
Y37854D01*
X33150Y14967D02*
Y38248D01*
X36805Y14967D02*
Y15656D01*
X41150Y1018D02*
Y9935D01*
X39150Y1018D02*
Y9935D01*
X37605Y7474D02*
Y9935D01*
X37150Y1018D02*
Y7474D01*
X33150Y1018D02*
Y7474D01*
X35150Y1018D02*
Y7474D01*
X31193Y101150D02*
X33017D01*
X29243Y102643D02*
X33017D01*
X32043Y99150D02*
X33017D01*
X31918Y97150D02*
X33017D01*
X25150Y102275D02*
Y102643D01*
X23150Y99514D02*
Y102643D01*
X31150Y101206D02*
Y102643D01*
Y78557D02*
Y95644D01*
X32376Y85833D02*
X38491D01*
X30705Y95150D02*
X33017D01*
X25150Y85644D02*
Y94575D01*
X23150Y85349D02*
Y97337D01*
X29150Y85644D02*
Y94171D01*
X27150Y85644D02*
Y93902D01*
X21193Y101150D02*
X23925D01*
X19243Y102643D02*
X25875D01*
X21918Y97150D02*
X23200D01*
X20705Y95150D02*
X24413D01*
X21150Y101206D02*
Y102643D01*
X22043Y99150D02*
X23076D01*
X3486Y91150D02*
X66929D01*
X3486Y93150D02*
X66929D01*
X19404Y87150D02*
X54081D01*
X3486Y89150D02*
X54980D01*
X21150Y85349D02*
Y95644D01*
X19404Y85349D02*
Y87711D01*
X12092D02*
X19404D01*
X30428Y83150D02*
X32376D01*
X30428Y85150D02*
X32376D01*
Y79521D02*
X38491D01*
X30428Y81150D02*
X32376D01*
X30428Y79710D02*
Y85644D01*
X24690D02*
X30428D01*
X24690Y79710D02*
X30428D01*
X24690D02*
Y81974D01*
X29150Y78557D02*
Y79710D01*
X27150Y78557D02*
Y79710D01*
X26561Y78557D02*
X43912D01*
X20684Y71150D02*
X26561D01*
X20684Y67150D02*
X26561D01*
X20684Y69150D02*
X26561D01*
X20684Y55150D02*
X26561D01*
X19404Y81150D02*
X24690D01*
X19404Y81974D02*
X24690D01*
X20684Y77150D02*
X26561D01*
X9561Y79150D02*
X54094D01*
X19404Y79612D02*
Y81974D01*
Y85349D02*
X24690D01*
X12092Y79612D02*
X19404D01*
X9561Y78557D02*
X20684D01*
Y61150D02*
X26561D01*
X20684Y63150D02*
X26561D01*
X20684Y57150D02*
X26561D01*
X20684Y59150D02*
X26561D01*
X20684Y73150D02*
X26561D01*
X20684Y75150D02*
X26561D01*
X20684Y65150D02*
X26561D01*
X15150Y102275D02*
Y102643D01*
X11193Y101150D02*
X13925D01*
X11918Y97150D02*
X13200D01*
X10705Y95150D02*
X14413D01*
X13150Y99514D02*
Y102643D01*
X11150Y101206D02*
Y102643D01*
X12043Y99150D02*
X13076D01*
X11150Y87711D02*
Y95644D01*
X15150Y87711D02*
Y94575D01*
X13150Y87711D02*
Y97337D01*
X19150Y87711D02*
Y94171D01*
X17150Y87711D02*
Y93902D01*
X12092Y79612D02*
Y87711D01*
X11530Y79612D02*
Y87711D01*
Y85150D02*
X12092D01*
X11530Y87150D02*
X12092D01*
X9243Y102643D02*
X15875D01*
X4218Y87711D02*
X11530D01*
X5150D02*
Y94575D01*
X3486Y95150D02*
X4413D01*
X9150Y87711D02*
Y94171D01*
X7150Y87711D02*
Y93902D01*
X4218Y86038D02*
Y87711D01*
X3486Y87150D02*
X4218D01*
X3691Y86038D02*
X4218D01*
X3486Y86898D02*
Y96415D01*
X11530Y81150D02*
X12092D01*
X11530Y83150D02*
X12092D01*
X19150Y78557D02*
Y79612D01*
X13150Y78557D02*
Y79612D01*
X4218D02*
Y82663D01*
X2854D02*
X4218D01*
X9561Y79612D02*
X11530D01*
X4218D02*
X6187D01*
X11150Y78557D02*
Y79612D01*
X9561Y78557D02*
Y79612D01*
X17150Y78557D02*
Y79612D01*
X15150Y78557D02*
Y79612D01*
X6187Y78557D02*
Y79612D01*
X5150Y78557D02*
Y79612D01*
X3332Y78557D02*
X6187D01*
X1018Y79150D02*
X6187D01*
X1018Y81150D02*
X4218D01*
X1018Y75150D02*
X3332D01*
X1018Y77150D02*
X3332D01*
X1018Y73150D02*
X3332D01*
X1018Y83150D02*
X1669D01*
X1018Y69150D02*
X3332D01*
X1018Y71150D02*
X3332D01*
X1018Y59150D02*
X3332D01*
X1018Y61150D02*
X3332D01*
X1018Y55150D02*
X3332D01*
X1018Y57150D02*
X3332D01*
X1018Y65150D02*
X3332D01*
X1018Y67150D02*
X3332D01*
X1018Y63150D02*
X3332D01*
X20684Y49150D02*
X26561D01*
X20684Y53150D02*
X26561D01*
Y47427D02*
X43912D01*
X26561D02*
Y78557D01*
X25150Y25597D02*
Y79710D01*
X20684Y51150D02*
X26561D01*
X20684Y47427D02*
Y78557D01*
X31150Y14967D02*
Y47427D01*
X29150Y14967D02*
Y47427D01*
X27150Y1018D02*
Y47427D01*
X22189Y25597D02*
X25449D01*
X23150D02*
Y81974D01*
X21150Y25408D02*
Y81974D01*
X25449Y19285D02*
Y25597D01*
X22189Y25408D02*
X22701D01*
X15270Y45150D02*
X43255D01*
X15270Y47150D02*
X45256D01*
X15270Y35150D02*
X61307D01*
X15270Y37150D02*
X63255D01*
X15270Y43150D02*
X40851D01*
X15270Y47427D02*
X20684D01*
X15270Y39150D02*
X32412D01*
X15270Y41150D02*
X32405D01*
X15270Y31150D02*
X57630D01*
X15270Y33150D02*
X59307D01*
X15270Y27150D02*
X56393D01*
X15270Y29150D02*
X56735D01*
X19818Y25408D02*
X20142D01*
X19818D02*
X20142D01*
X22189D01*
X25449Y23150D02*
X56384D01*
X25449Y25150D02*
X56384D01*
X27356Y14967D02*
X36805D01*
X25449Y21150D02*
X56384D01*
X22189Y19285D02*
X25449D01*
X27356Y7474D02*
X37605D01*
X31150Y1018D02*
Y7474D01*
X29150Y1018D02*
Y7474D01*
X25150Y1018D02*
Y19285D01*
X23150Y1018D02*
Y19285D01*
X27356Y7474D02*
Y14967D01*
X1018Y17150D02*
X56384D01*
X1018Y19150D02*
X56384D01*
X10046Y11150D02*
X27356D01*
X1018Y15150D02*
X36805D01*
X20142Y19474D02*
X22189D01*
X19818D02*
X20142D01*
X22189D02*
X22701D01*
X10046Y13150D02*
X27356D01*
X1018Y5150D02*
X66929D01*
X1018Y7150D02*
X66929D01*
X1018Y1018D02*
X66929D01*
X1018Y3150D02*
X66929D01*
X21150Y1018D02*
Y19474D01*
X10046Y9150D02*
X27356D01*
X1018Y1150D02*
X66929D01*
X19150Y25408D02*
Y47427D01*
X17259Y25408D02*
X17583D01*
X17259D02*
X17583D01*
X15270D02*
X17259D01*
X3332Y47427D02*
X11895D01*
X3332D02*
Y78557D01*
X17150Y25408D02*
Y47427D01*
X15270Y25408D02*
Y47427D01*
X9150Y14967D02*
Y47427D01*
X7150Y14967D02*
Y47427D01*
X11895Y24409D02*
Y47427D01*
X11150Y1018D02*
Y47427D01*
X3150Y14967D02*
Y82663D01*
X1150Y14967D02*
Y83751D01*
X5150Y14967D02*
Y47427D01*
X1018Y43150D02*
X11895D01*
X1018Y45150D02*
X11895D01*
X1018Y39150D02*
X11895D01*
X1018Y41150D02*
X11895D01*
X1018Y51150D02*
X3332D01*
X1018Y53150D02*
X3332D01*
X1018Y47150D02*
X11895D01*
X1018Y49150D02*
X3332D01*
X1018Y35150D02*
X11895D01*
X1018Y37150D02*
X11895D01*
X1018Y31150D02*
X11895D01*
X1018Y33150D02*
X11895D01*
X1018Y29150D02*
X11895D01*
X1018Y14967D02*
Y83937D01*
Y27150D02*
X11895D01*
X19818Y19474D02*
X20142D01*
X17583Y25408D02*
X19818D01*
X17583Y19474D02*
X19818D01*
X17259D02*
X17583D01*
X12141D02*
Y23532D01*
X17259Y19474D02*
X17583D01*
X15024D02*
X17259D01*
X15150Y1018D02*
Y19474D01*
X14700D02*
X15024D01*
X19150Y1018D02*
Y19474D01*
X17150Y1018D02*
Y19474D01*
X13150Y1018D02*
Y19474D01*
X12141D02*
X14700D01*
X15024D01*
X1018Y23150D02*
X12141D01*
X1018Y25150D02*
X11895D01*
X1018Y14967D02*
X10046D01*
X1018Y21150D02*
X12141D01*
X1018Y7474D02*
X10046D01*
Y14967D01*
X9150Y1018D02*
Y7474D01*
X7150Y1018D02*
Y7474D01*
X5150Y1018D02*
Y7474D01*
X1150Y1018D02*
Y7474D01*
X1018Y1018D02*
Y7474D01*
X3150Y1018D02*
Y7474D01*
D13*
X23819Y22441D02*
D03*
X21260D02*
D03*
X18701D02*
D03*
X16142D02*
D03*
X13583D02*
D03*
D14*
X4921Y11220D02*
D03*
X32480D02*
D03*
D15*
X7874Y83661D02*
D03*
X15748D02*
D03*
X95472Y5906D02*
D03*
X87598D02*
D03*
D16*
X35236Y62992D02*
D03*
X12008D02*
D03*
D17*
X35433Y82677D02*
D03*
X27559D02*
D03*
X107283Y5906D02*
D03*
X115157D02*
D03*
X78740D02*
D03*
X70866D02*
D03*
D18*
X86850Y83268D02*
D03*
X76850D02*
D03*
X66850D02*
D03*
X56850D02*
D03*
X86850Y44685D02*
D03*
X76850D02*
D03*
X66850D02*
D03*
X56850D02*
D03*
D19*
X102362Y60039D02*
D03*
Y52165D02*
D03*
D20*
X112205Y48228D02*
D03*
Y56102D02*
D03*
D21*
X109055Y15354D02*
D03*
X118110D02*
D03*
X127165D02*
D03*
D22*
X118110Y37795D02*
D03*
D23*
X97441Y30512D02*
D03*
Y22638D02*
D03*
D24*
X82677Y27559D02*
D03*
X66929D02*
D03*
X58071Y12795D02*
D03*
X42323D02*
D03*
D25*
X102362Y60039D02*
Y62697D01*
Y60039D02*
X105118D01*
X102362Y57382D02*
Y60039D01*
X99606D02*
X102362D01*
X104331Y46891D02*
X106496D01*
X102165D02*
X104331D01*
Y44726D02*
Y46891D01*
X109055Y15354D02*
X111614D01*
X109055D02*
Y20276D01*
X113681Y11319D02*
Y13484D01*
X109055Y10433D02*
Y15354D01*
X107283Y3150D02*
Y5906D01*
X109941D01*
X106496Y15354D02*
X109055D01*
X104626Y5906D02*
X107283D01*
Y8661D01*
X92716Y81004D02*
X94882D01*
X90551D02*
X92716D01*
Y83169D01*
X84547Y92716D02*
X86713D01*
X82382D02*
X84547D01*
Y90551D02*
Y92716D01*
X89370Y29724D02*
Y31890D01*
Y29724D02*
X91535D01*
X89370Y27559D02*
Y29724D01*
X86850Y44685D02*
X89409D01*
X86850Y38287D02*
Y44685D01*
Y51083D01*
X66929Y27559D02*
X72047D01*
X70866Y5906D02*
X73524D01*
X70866Y3150D02*
Y5906D01*
Y8661D01*
X35433Y82677D02*
Y85433D01*
Y82677D02*
X38091D01*
X35433Y79921D02*
Y82677D01*
X32776D02*
X35433D01*
X56850Y44685D02*
X59409D01*
X56850Y38287D02*
Y44685D01*
X54291D02*
X56850D01*
X42323Y12795D02*
Y15256D01*
Y10335D02*
Y12795D01*
X47441D01*
X32480Y11220D02*
Y14567D01*
Y7874D02*
Y11220D01*
X23819Y19685D02*
Y22441D01*
Y25197D01*
Y22441D02*
X25049D01*
X27756Y11220D02*
X32480D01*
X4921Y7874D02*
Y11220D01*
Y14567D01*
Y11220D02*
X9646D01*
D26*
X13583Y22441D02*
Y24409D01*
D27*
X137795Y7244D02*
D03*
D28*
Y17244D02*
D03*
Y27244D02*
D03*
Y37244D02*
D03*
Y47244D02*
D03*
Y57244D02*
D03*
Y67244D02*
D03*
Y77244D02*
D03*
X7559Y98425D02*
D03*
X27559D02*
D03*
X17559D02*
D03*
D29*
X37559D02*
D03*
D30*
X104331Y46891D02*
D03*
X119210Y48228D02*
D03*
X107972Y102461D02*
D03*
X46555Y99213D02*
D03*
X92716Y81004D02*
D03*
X84547Y92716D02*
D03*
X125984Y93884D02*
D03*
X113681Y11319D02*
D03*
X89370Y29724D02*
D03*
X75984Y35531D02*
D03*
X80610Y37894D02*
D03*
X72146Y77067D02*
D03*
X76870Y72244D02*
D03*
X91142Y77461D02*
D03*
X92520Y59646D02*
D03*
X62303Y51181D02*
D03*
X34564Y40157D02*
D03*
M02*
