G04 Layer_Color=8388736*
%FSLAX25Y25*%
%MOIN*%
G70*
G01*
G75*
%ADD41R,0.01279X0.04331*%
%ADD42R,0.08268X0.05512*%
%ADD43R,0.05709X0.06496*%
%ADD44R,0.15748X0.29528*%
%ADD45R,0.04134X0.04331*%
%ADD46O,0.03937X0.11614*%
%ADD47R,0.04331X0.04134*%
%ADD48R,0.06496X0.05709*%
%ADD49R,0.03937X0.08661*%
%ADD50R,0.12992X0.08661*%
%ADD51R,0.07677X0.04724*%
%ADD52R,0.09055X0.03740*%
%ADD53R,0.07480X0.07480*%
%ADD54C,0.07480*%
%ADD55R,0.07480X0.07480*%
%ADD56C,0.03150*%
D41*
X23819Y22441D02*
D03*
X21260D02*
D03*
X18701D02*
D03*
X16142D02*
D03*
X13583D02*
D03*
D42*
X4921Y11220D02*
D03*
X32480D02*
D03*
D43*
X7874Y83661D02*
D03*
X15748D02*
D03*
X95472Y5906D02*
D03*
X87598D02*
D03*
D44*
X35236Y62992D02*
D03*
X12008D02*
D03*
D45*
X35433Y82677D02*
D03*
X27559D02*
D03*
X107283Y5906D02*
D03*
X115157D02*
D03*
X78740D02*
D03*
X70866D02*
D03*
D46*
X86850Y83268D02*
D03*
X76850D02*
D03*
X66850D02*
D03*
X56850D02*
D03*
X86850Y44685D02*
D03*
X76850D02*
D03*
X66850D02*
D03*
X56850D02*
D03*
D47*
X102362Y60039D02*
D03*
Y52165D02*
D03*
D48*
X112205Y48228D02*
D03*
Y56102D02*
D03*
D49*
X109055Y15354D02*
D03*
X118110D02*
D03*
X127165D02*
D03*
D50*
X118110Y37795D02*
D03*
D51*
X97441Y30512D02*
D03*
Y22638D02*
D03*
D52*
X82677Y27559D02*
D03*
X66929D02*
D03*
X58071Y12795D02*
D03*
X42323D02*
D03*
D53*
X137795Y7244D02*
D03*
D54*
Y17244D02*
D03*
Y27244D02*
D03*
Y37244D02*
D03*
Y47244D02*
D03*
Y57244D02*
D03*
Y67244D02*
D03*
Y77244D02*
D03*
X7559Y98425D02*
D03*
X27559D02*
D03*
X17559D02*
D03*
D55*
X37559D02*
D03*
D56*
X104331Y46891D02*
D03*
X119210Y48228D02*
D03*
X107972Y102461D02*
D03*
X46555Y99213D02*
D03*
X92716Y81004D02*
D03*
X84547Y92716D02*
D03*
X125984Y93884D02*
D03*
X113681Y11319D02*
D03*
X89370Y29724D02*
D03*
X75984Y35531D02*
D03*
X80610Y37894D02*
D03*
X72146Y77067D02*
D03*
X76870Y72244D02*
D03*
X91142Y77461D02*
D03*
X92520Y59646D02*
D03*
X62303Y51181D02*
D03*
X34564Y40157D02*
D03*
M02*
